<svg class="ldi-qmuk90" width="200px"  height="200px"  xmlns="http://www.w3.org/2000/svg" xmlns:xlink="http://www.w3.org/1999/xlink" viewBox="0 0 100 100" preserveAspectRatio="xMidYMid" style="background: none;"><!--?xml version="1.0" encoding="utf-8"?--><!--Generator: Adobe Illustrator 21.0.0, SVG Export Plug-In . SVG Version: 6.00 Build 0)--><svg version="1.1" id="圖層_1" xmlns="http://www.w3.org/2000/svg" xmlns:xlink="http://www.w3.org/1999/xlink" x="0px" y="0px" viewBox="0 0 100 100" style="transform-origin: 50px 50px 0px;" xml:space="preserve"><g style="transform-origin: 50px 50px 0px;"><g style="transform-origin: 50px 50px 0px; transform: scale(0.6);"><g style="transform-origin: 50px 50px 0px;"><g><style type="text/css" class="ld ld-fade" style="transform-origin: 50px 50px 0px; animation-duration: 2.3s; animation-delay: -2.3s; animation-direction: normal;">.st0{fill:#C7B299;stroke:#333333;stroke-width:6;stroke-miterlimit:10;} .st1{fill:#F5E169;} .st2{fill:#666666;} .st3{fill:#F5E6C8;} .st4{fill:#333333;} .st5{fill:#E0E0E0;} .st6{fill:#F8B26A;} .st7{fill:#FFFFFF;stroke:#000000;stroke-width:4;stroke-miterlimit:10;} .st8{fill:#F47E60;} .st9{fill:#ABBD81;} .st10{fill:#E15B64;} .st11{fill:#666666;stroke:#221E1F;stroke-width:4.5;stroke-linejoin:round;stroke-miterlimit:10;} .st12{fill:#FFFFFF;stroke:#221E1F;stroke-width:6;stroke-linejoin:round;stroke-miterlimit:10;} .st13{fill:#77A4BD;} .st14{fill:#FFDC6C;} .st15{fill:#FFFFFF;} .st16{fill:#353035;} .st17{fill:#E0E0E0;stroke:#000000;stroke-width:6;stroke-miterlimit:10;} .st18{fill:none;stroke:#000000;stroke-width:5;stroke-linecap:round;stroke-miterlimit:10;} .st19{fill:none;stroke:#000000;stroke-width:5;stroke-miterlimit:10;} .st20{fill:none;} .st21{fill:#666666;stroke:#221E1F;stroke-width:6;stroke-linejoin:round;stroke-miterlimit:10;} .st22{fill:#FFFFFF;stroke:#221E1F;stroke-width:4.5;stroke-linejoin:round;stroke-miterlimit:10;} .st23{fill:#333333;stroke:#221E1F;stroke-width:4.5;stroke-linejoin:round;stroke-miterlimit:10;} .st24{fill:#1BD112;} .st25{fill:#FFFFFF;stroke:#333333;stroke-width:8;stroke-miterlimit:10;} .st26{fill:none;stroke:#666666;stroke-width:8;stroke-miterlimit:10;} .st27{fill:#FFFFFF;stroke:#333333;stroke-miterlimit:10;} .st28{fill:none;stroke:#333333;stroke-miterlimit:10;} .st29{stroke:#333333;stroke-miterlimit:10;} .st30{fill:none;stroke:#000000;stroke-width:4;stroke-linecap:round;stroke-miterlimit:10;} .st31{fill:none;stroke:#000000;stroke-width:6;stroke-miterlimit:10;} .st32{fill:#C33737;} .st33{fill:#849B87;} .st34{fill:#66503A;} .st35{fill:none;stroke:#333333;stroke-width:6;stroke-miterlimit:10;} .st36{fill:none;stroke:#333333;stroke-width:4;stroke-miterlimit:10;} .st37{fill:#C59B6D;} .st38{fill:#E0E0E0;stroke:#221E1F;stroke-width:4.5;stroke-linejoin:round;stroke-miterlimit:10;} .st39{fill:#666666;stroke:#000000;stroke-width:3;stroke-miterlimit:10;} .st40{fill:#F5E6C8;stroke:#000000;stroke-width:3;stroke-miterlimit:10;} .st41{fill:#FFFFFF;stroke:#808080;stroke-width:4;stroke-miterlimit:10;} .st42{fill:#808080;stroke:#808080;stroke-width:4;stroke-miterlimit:10;} .st43{fill:#666666;stroke:#B3B3B3;stroke-width:12;stroke-linecap:round;stroke-miterlimit:10;} .st44{fill:#808080;} .st45{fill:#B3B3B3;} .st46{fill:#FFFF00;stroke:#E15B64;stroke-width:6;stroke-linecap:round;stroke-linejoin:round;stroke-miterlimit:10;} .st47{fill:none;stroke:#E15B64;stroke-width:6;stroke-linecap:round;stroke-linejoin:round;stroke-miterlimit:10;} .st48{fill:#F5E6C8;stroke:#333333;stroke-width:4;stroke-miterlimit:10;}</style><g class="ld ld-fade" style="transform-origin: 50px 50px 0px; animation-duration: 2.3s; animation-delay: -2.22812s; animation-direction: normal;"><path class="st4" d="M85.7,18.3H14.3c-3.7,0-6.8,3-6.8,6.8v56.4c0,3.7,3,6.8,6.8,6.8h71.5c3.7,0,6.8-3,6.8-6.8V25.1 C92.5,21.4,89.5,18.3,85.7,18.3z" fill="#28292f" style="fill: rgb(40, 41, 47);"></path></g><g style="transform-origin: 50px 50px 0px;"><g><g class="ld ld-fade" style="transform-origin: 50px 50px 0px; animation-duration: 2.3s; animation-delay: -2.15625s; animation-direction: normal;"><path class="st5" d="M29.7,35.9c-4.3,0-7.8-3.5-7.8-7.8V17.6c0-4.3,3.5-7.8,7.8-7.8c4.3,0,7.8,3.5,7.8,7.8v10.6 C37.5,32.5,34,35.9,29.7,35.9z" fill="#0a0a0a" style="fill: rgb(10, 10, 10);"></path></g><g class="ld ld-fade" style="transform-origin: 50px 50px 0px; animation-duration: 2.3s; animation-delay: -2.08437s; animation-direction: normal;"><path class="st4" d="M29.7,11.8c3.2,0,5.8,2.6,5.8,5.8v10.6c0,3.2-2.6,5.8-5.8,5.8s-5.8-2.6-5.8-5.8V17.6 C23.9,14.4,26.5,11.8,29.7,11.8 M29.7,7.8c-5.4,0-9.8,4.4-9.8,9.8v10.6c0,5.4,4.4,9.8,9.8,9.8s9.8-4.4,9.8-9.8V17.6 C39.5,12.2,35.1,7.8,29.7,7.8L29.7,7.8z" fill="#28292f" style="fill: rgb(40, 41, 47);"></path></g></g></g><g style="transform-origin: 50px 50px 0px;"><g><g class="ld ld-fade" style="transform-origin: 50px 50px 0px; animation-duration: 2.3s; animation-delay: -2.0125s; animation-direction: normal;"><path class="st5" d="M69.6,35.9c-4.3,0-7.8-3.5-7.8-7.8V17.6c0-4.3,3.5-7.8,7.8-7.8s7.8,3.5,7.8,7.8v10.6 C77.4,32.5,73.9,35.9,69.6,35.9z" fill="#0a0a0a" style="fill: rgb(10, 10, 10);"></path></g><g class="ld ld-fade" style="transform-origin: 50px 50px 0px; animation-duration: 2.3s; animation-delay: -1.94062s; animation-direction: normal;"><path class="st4" d="M69.6,11.8c3.2,0,5.8,2.6,5.8,5.8v10.6c0,3.2-2.6,5.8-5.8,5.8c-3.2,0-5.8-2.6-5.8-5.8V17.6 C63.8,14.4,66.4,11.8,69.6,11.8 M69.6,7.8c-5.4,0-9.8,4.4-9.8,9.8v10.6c0,5.4,4.4,9.8,9.8,9.8c5.4,0,9.8-4.4,9.8-9.8V17.6 C79.4,12.2,75,7.8,69.6,7.8L69.6,7.8z" fill="#28292f" style="fill: rgb(40, 41, 47);"></path></g></g></g><g class="ld ld-fade" style="transform-origin: 50px 50px 0px; animation-duration: 2.3s; animation-delay: -1.86875s; animation-direction: normal;"><rect x="44.2" y="71.7" class="st15" width="11.6" height="10.7" fill="#ffffff" style="fill: rgb(255, 255, 255);"></rect></g><g class="ld ld-fade" style="transform-origin: 50px 50px 0px; animation-duration: 2.3s; animation-delay: -1.79687s; animation-direction: normal;"><rect x="28.8" y="71.7" class="st15" width="11.6" height="10.7" fill="#ffffff" style="fill: rgb(255, 255, 255);"></rect></g><g class="ld ld-fade" style="transform-origin: 50px 50px 0px; animation-duration: 2.3s; animation-delay: -1.725s; animation-direction: normal;"><rect x="44.2" y="42.7" class="st15" width="11.6" height="10.6" fill="#ffffff" style="fill: rgb(255, 255, 255);"></rect></g><g class="ld ld-fade" style="transform-origin: 50px 50px 0px; animation-duration: 2.3s; animation-delay: -1.65312s; animation-direction: normal;"><rect x="59.7" y="57.2" class="st10" width="11.6" height="10.7" fill="#ffffff" style="fill: rgb(255, 255, 255);"></rect></g><g class="ld ld-fade" style="transform-origin: 50px 50px 0px; animation-duration: 2.3s; animation-delay: -1.58125s; animation-direction: normal;"><rect x="59.7" y="71.7" class="st15" width="11.6" height="10.7" fill="#ffffff" style="fill: rgb(255, 255, 255);"></rect></g><g class="ld ld-fade" style="transform-origin: 50px 50px 0px; animation-duration: 2.3s; animation-delay: -1.50937s; animation-direction: normal;"><rect x="13.3" y="57.2" class="st15" width="11.6" height="10.7" fill="#ffffff" style="fill: rgb(255, 255, 255);"></rect></g><g class="ld ld-fade" style="transform-origin: 50px 50px 0px; animation-duration: 2.3s; animation-delay: -1.4375s; animation-direction: normal;"><rect x="28.8" y="42.7" class="st15" width="11.6" height="10.6" fill="#ffffff" style="fill: rgb(255, 255, 255);"></rect></g><g class="ld ld-fade" style="transform-origin: 50px 50px 0px; animation-duration: 2.3s; animation-delay: -1.36562s; animation-direction: normal;"><rect x="59.7" y="42.7" class="st6" width="11.6" height="10.6" fill="#3c94f8" style="fill: rgb(60, 148, 248);"></rect></g><g class="ld ld-fade" style="transform-origin: 50px 50px 0px; animation-duration: 2.3s; animation-delay: -1.29375s; animation-direction: normal;"><path class="st15" d="M24.9,42.7H14.3c-0.3,0-0.7,0-1-0.1v10.7h11.6V42.7z" fill="#ffffff" style="fill: rgb(255, 255, 255);"></path></g><g class="ld ld-fade" style="transform-origin: 50px 50px 0px; animation-duration: 2.3s; animation-delay: -1.22187s; animation-direction: normal;"><rect x="75.1" y="57.2" class="st15" width="11.6" height="10.7" fill="#ffffff" style="fill: rgb(255, 255, 255);"></rect></g><g class="ld ld-fade" style="transform-origin: 50px 50px 0px; animation-duration: 2.3s; animation-delay: -1.15s; animation-direction: normal;"><path class="st15" d="M24.9,71.7H13.3v9.8c0,0.5,0.4,0.9,0.9,1h10.7V71.7z" fill="#ffffff" style="fill: rgb(255, 255, 255);"></path></g><g class="ld ld-fade" style="transform-origin: 50px 50px 0px; animation-duration: 2.3s; animation-delay: -1.07813s; animation-direction: normal;"><rect x="44.2" y="57.2" class="st10" width="11.6" height="10.7" fill="#ffffff" style="fill: rgb(255, 255, 255);"></rect></g><g class="ld ld-fade" style="transform-origin: 50px 50px 0px; animation-duration: 2.3s; animation-delay: -1.00625s; animation-direction: normal;"><path class="st15" d="M86.7,81.5v-9.8H75.1v10.7h10.7C86.3,82.4,86.7,82,86.7,81.5z" fill="#ffffff" style="fill: rgb(255, 255, 255);"></path></g><g class="ld ld-fade" style="transform-origin: 50px 50px 0px; animation-duration: 2.3s; animation-delay: -0.934375s; animation-direction: normal;"><rect x="28.8" y="57.2" class="st10" width="11.6" height="10.7" fill="#ffffff" style="fill: rgb(255, 255, 255);"></rect></g><g class="ld ld-fade" style="transform-origin: 50px 50px 0px; animation-duration: 2.3s; animation-delay: -0.8625s; animation-direction: normal;"><path class="st6" d="M75.1,42.7v10.6h11.6V42.6c-0.3,0.1-0.6,0.1-1,0.1H75.1z" fill="#3c94f8" style="fill: rgb(60, 148, 248);"></path></g><metadata xmlns:d="https://loading.io/stock/" class="ld ld-fade" style="transform-origin: 50px 50px 0px; animation-duration: 2.3s; animation-delay: -0.790625s; animation-direction: normal;">
<d:name class="ld ld-fade" style="transform-origin: 50px 50px 0px; animation-duration: 2.3s; animation-delay: -0.71875s; animation-direction: normal;">calendar</d:name>
<d:tags class="ld ld-fade" style="transform-origin: 50px 50px 0px; animation-duration: 2.3s; animation-delay: -0.646875s; animation-direction: normal;">schedule,date,time,plan,agenda,journal,calendar,web application</d:tags>
<d:license class="ld ld-fade" style="transform-origin: 50px 50px 0px; animation-duration: 2.3s; animation-delay: -0.575s; animation-direction: normal;">rf</d:license>
<d:slug class="ld ld-fade" style="transform-origin: 50px 50px 0px; animation-duration: 2.3s; animation-delay: -0.503125s; animation-direction: normal;">qmuk90</d:slug>
</metadata></g></g></g></g><style type="text/css" class="ld ld-fade" style="transform-origin: 50px 50px 0px; animation-duration: 2.3s; animation-delay: -0.43125s; animation-direction: normal;">@keyframes ld-fade {
  0% {
    opacity: 1;
  }
  100% {
    opacity: 0;
  }
}
@-webkit-keyframes ld-fade {
  0% {
    opacity: 1;
  }
  100% {
    opacity: 0;
  }
}
.ld.ld-fade {
  -webkit-animation: ld-fade 1s infinite linear;
  animation: ld-fade 1s infinite linear;
}
</style></svg></svg>